# xmcd CD database file
#
# Track frame offsets:
#	150
#	83231
#	109690
#
# Disc length: 1854 seconds
#
# Revision: 0
# Processed by: cddbd v1.5.2PL0 Copyright (c) Steve Scherf et al.
# Submitted via: CDex 1.51
#
DISCID=1a073c03
DTITLE=Erik Truffaz - Benares
DYEAR=2008
DGENRE=Jazz
TTITLE0=Tarana
TTITLE1=Saraswati
TTITLE2=Yay!
EXTD=YEAR: 2008
EXTT0=
EXTT1=
EXTT2=
PLAYORDER=
